<?xml version="1.0" encoding="utf-8"?>
<!-- Generator: Adobe Illustrator 22.1.0, SVG Export Plug-In . SVG Version: 6.00 Build 0)  -->
<svg version="1.1" id="Layer_1" xmlns="http://www.w3.org/2000/svg" xmlns:xlink="http://www.w3.org/1999/xlink" x="0px" y="0px"
	 viewBox="0 0 800.2 389.1" style="enable-background:new 0 0 800.2 389.1;" xml:space="preserve">
<style type="text/css">
	.st0{enable-background:new    ;}
</style>
<g class="st0">
	<path d="M27.4,162.4c-2.7-1-5.3-2.2-7.7-3.6c-0.8-0.5-1.6-1-2.3-1.6c-3-2.5-3.2-5.1-0.5-7.9c1.6-1.6,3.6-2.8,5.7-3.9
		c5.6-2.9,11.8-4.4,18-5.8c16.6-3.7,33.4-4.7,50.3-4.5c9.3,0.2,18.6,0.6,27.8,2.5c5.9,1.2,11.5,3.2,17,5.6c2.5,1.1,4.9,2.5,7,4.3
		c5.8,5.1,6,11.5,0.5,16.9c-3,2.9-6.5,4.9-10.3,6.7c-7.3,3.5-15,5.8-22.7,7.9c-13.2,3.6-26.6,6.5-40.3,8.2c-7.9,1-15.8,1.6-23.7,1.6
		c-3.7,0-7.3-0.5-10.8-1.5c-1.5-0.4-3-0.9-4.3-1.7c-3.2-1.9-4.1-4.6-2.5-7.9c0.8-1.8,2.1-3.2,3.5-4.6c2-2,4.2-3.6,6.5-5.3
		c0.7-0.5,1.3-1,2.4-1.8C35.8,165,31.5,164,27.4,162.4z M42.2,182c15.6-0.7,31-3,46.2-6.2c10.3-2.2,20.5-4.7,30.2-8.6
		c4.4-1.7,8.7-3.8,12.6-6.5c1.8-1.3,3.4-2.8,4.5-4.7c1.2-2.3,0.9-4.4-0.8-6.4c-0.9-1.1-2.1-1.9-3.4-2.6c-2.2-1.2-4.6-1.9-7.1-2.4
		c-11.4-2.5-23.1-3.2-34.8-3c-12.3,0.3-24.5,1.7-36.6,3.7c-5.6,0.9-11.2,1.8-16.5,3.6c-3.5,1.1-6.8,2.6-9.7,4.7
		c-0.7,0.5-1.6,1.1-1.4,1.9c0.2,1,1.1,1.6,2.2,1.8c0.4,0.1,0.8,0.3,1.2,0.4c5,1.3,10.2,2.1,15.3,3c2.7,0.5,4.8-0.1,7.1-1.6
		c7.8-5.2,16-9.9,24.2-14.6c1.6-0.9,3.1-1.4,5-0.9c1.8,0.5,3.4,1.3,4.9,2.3c1.5,1,1.5,2.3,0.2,3.5c-0.9,0.9-2.1,1.5-3.2,2.1
		c-5.8,3.3-11.6,6.7-17.2,10.2c-0.6,0.4-1.4,0.6-1.8,1.3c0.2,0.6,0.8,0.6,1.3,0.8c0.7,0.4,1.5,0.8,2.2,1.3c0.8,0.6,1.6,1.4,1.3,2.5
		c-0.3,1.2-1.5,1.5-2.6,1.7c-1.1,0.2-2.3,0.1-3.4-0.1c-1.8-0.3-3.6-0.5-5.4-0.9c-1.2-0.3-2,0-2.9,0.6c-3.9,2.8-7.7,5.6-11.2,8.8
		c-1.3,1.1-2.6,2.2-3.6,3.9C40.2,182.2,41.2,182.1,42.2,182z"/>
	<path d="M176.7,188.4c-1.5,3.3-4.6,4.9-7.9,4c-3.5-0.9-5.4-3.7-5-7.2c0.2-2.1,0.7-4.2,1.3-6.3c1-3.5,3.9-5.4,7.5-4.9
		c3.3,0.5,5.8,3.4,5.7,7.1C178,183.4,177.8,186,176.7,188.4z"/>
	<path d="M178.4,243.7c2.4-4,5.4-7.6,9.3-10.5c3.6-2.7,7.5-5,11.6-7.1c1.1-0.6,2.4-1.1,3.7-1.3c2-0.4,2.5,0.1,2.4,2
		c0,0.2-0.1,0.3-0.1,0.5c0,0.2,0.1,0.3,0.2,0.8c29.5-26.3,57.5-53.8,84.6-82.6c-1.3-0.3-2.2-0.2-3.1-0.1
		c-13.7,1.1-27.4,2.2-41.1,3.2c-9.5,0.7-19.1,1.4-28.7,2.2c-5.2,0.4-10.4,0.9-15.6,1.3c-1.5,0.1-3.1,0.5-4.1-0.9
		c-0.9-1.4,0-2.7,0.8-3.9c1.9-3,4.4-4.6,8.4-4.8c11-0.6,21.9-1.5,32.8-2.4c9.4-0.7,18.8-1.4,28.1-2.1c9.9-0.8,19.8-1.6,29.7-2.2
		c1.8-0.1,2.9-0.8,3.8-2.1c0.5-0.7,1.1-1.4,1.8-2.4c-1.9-0.3-3.3-0.2-4.9,0.1c-2.6,0.6-5.2,1.5-7.7,2.4c-1.2,0.4-2.5,0.9-3.8,0.9
		c-1.8,0.1-2.5-0.6-2.1-2.2c0.6-2.4,2.1-4.4,4.2-5.7c5.1-3.1,10.7-4.8,16.8-4.7c5.5,0.1,7,2.6,4.4,7.2c-0.8,1.5-1.9,2.9-2.9,4.4
		c-0.2,0.3-0.6,0.6-0.4,1.1c0.8,0.3,1.7,0.1,2.5,0c8.9-0.7,17.7-1.4,26.6-2.1c2.7-0.2,3.7,1.2,2.7,3.5c-0.7,1.7-1.9,3.1-3.3,4.4
		c-1,0.9-2.2,1.3-3.5,1.4c-8,0.6-16,1.2-24,1.9c-2.4,0.2-4.9,0.4-7.3,0.5c-1.8,0.1-3.2,0.7-4.4,1.9c-1.7,1.7-3.5,3.4-5.1,5.3
		c-7.8,9.2-16.5,17.8-25.1,26.4c-14.8,14.9-29.7,29.8-45,44.2c-9.8,9.2-20.1,17.7-30.7,26c-2,1.6-4.3,2.7-6.5,4c-1.6,0-3.1,0-4.7,0
		C176.4,249.4,176.6,246.5,178.4,243.7z M186.4,242.3c2.6-1.2,4.6-2.6,6.7-4.4C190.5,238.7,188.1,240.3,186.4,242.3z"/>
	<path d="M417.1,173c-0.9,0.9-3.2,2.3-7,3.9c0,0-2.5,1.2-3.8,1.6c-0.1,0-0.2,0.1-0.3,0.1l0,0c0,0-8.2,3-13.3,4c0,0-0.1,0-0.1,0
		c-1.2,0.3-2.5,0.6-3.8,0.8c-5.7,1-11.4,1.3-17.2,0.9c-2.8-0.2-5.3,0.2-7.9,1.5c-5.4,2.8-10.9,4.8-16.7,6
		c-6.1,1.2-12.3,1.5-18.8,0.8c-3.5-0.4-7-1.1-10.3-2.4c-1.1-0.5-2.2-1-3.2-1.7c-2.7-1.9-3.4-4.4-2.2-7.4c1-2.4,2.7-4.4,4.5-6.3
		c3-3,6.5-5.5,10.2-7.6c3.9-2.3,7.9-4.5,11.8-6.8c3.1-1.8,6.4-2,9.8-1.5c2.2,0.3,2.6,0.8,3.1,3.2c7.3-1.1,14.4-0.9,21.4,0.6
		c1.7,0.4,3.3,0.9,4.8,1.9c2.5,1.7,3.3,4.1,2.4,6.9c-0.8,2.4-2.5,4.2-4.4,6c-0.7,0.7-1.6,1.2-2.2,2.3c3.5-0.2,6.8-0.7,10-1.5
		c2.3-0.7,4.7-1.4,7-2.1c1.4-0.4,2.7-0.9,4.1-1.3c4-1.3,8-2.7,8.2-2.8c2.3-0.9,9.6-3.3,12-3.3c0,0,0,0,0,0c0.6-0.1,1.4,0.1,2,0.5
		c0.3,0.2,0.5,0.4,0.7,0.7c0.1,0.2,0.1,0.3,0.2,0.5c0,0,0,0,0,0C418.2,171.2,418.1,171.9,417.1,173z M354.1,181.9
		c-1-0.7-2.3-0.8-3.4-1.1c-4.8-1.5-9.5-3-13.9-5.5c-1.1-0.6-2-2.2-3.4-1.9c-1.2,0.3-2.3,1.4-3.3,2.3c-1.5,1.2-2.9,2.4-4.2,3.6
		c-0.7,0.6-1.3,1.3-1.8,2.1c-1.5,2.2-1.2,3.9,1.2,5.4c1.2,0.8,2.5,1.2,3.9,1.3c1.9,0.2,3.8,0.1,5.7-0.1c6-0.9,11.8-2.6,17.4-4.9
		C352.8,182.8,353.7,182.7,354.1,181.9z M366.2,166.1c-0.4-0.1-0.9,0-0.9,0c-7,0.4-13.3,1.9-19.3,4.5c-0.5,0.2-1.1,0.3-1.1,0.9
		c0,0.7,0.6,1,1.2,1.2c4.5,1.8,8.9,3.8,13.6,5.1c0.7,0.2,1.3,0.3,2-0.1c2.6-1.8,5.2-3.6,7.1-6.1C370.8,168.8,370,167,366.2,166.1z"
		/>
	<path d="M589.5,171c-0.4,0.5-1.9,1.5-4,2.5c-4.8,2.4-13.5,6.1-13.5,6.1l0,0c-7.8,2.9-15.8,5.5-24.1,7c-12.5,2.2-23.9,0.2-34-7.2
		c-2.2-1.6-4.2-2.4-7.1-1.9c-2.7,0.5-5.3,0.9-7.8,1.8c-8,2.7-15.6,6.1-23.2,9.6c-3.3,1.5-6.6,3-9.8,4.6c-2.6,1.3-4.8,1.2-7.3-0.4
		c-5-3.3-5.4-4.2-3.2-9.5c1.6-3.7,3.8-7,6.1-10.3c0.3-0.4,0.5-0.8,0.8-1.3c-1-0.3-1.8,0.3-2.6,0.6c-5.9,2.1-11.5,4.7-17.2,7.2
		c-9.7,4.4-19.4,8.8-29.4,12.9c-1,0.4-1.9,0.8-2.9,1.1c-2,0.5-4,0.5-5.8-0.7c-1.1-0.7-2.2-1.3-3.2-2.1c-2-1.5-2.3-2.8-1.3-5
		c0.8-1.8,1.9-3.5,3.1-5.1c4.6-6.1,9.6-11.9,14.9-17.4c2.3-2.4,3-2.4,5.8-0.8c0.7,0.4,1.4,0.7,2,1.1c3.1,1.9,3.3,3.4,0.9,5.9
		c-2.5,2.7-5,5.5-7.5,8.2c-0.5,0.6-1.2,1.2-1.5,2.1c1.2,0,2.1-0.6,3-1c10.9-4.8,21.8-9.5,32.8-14c4.1-1.7,8.2-3.2,12.6-4
		c5.1-1,7.8,1.2,10.9,4.3c1.3,1.3,0.7,3-0.2,4.4c-1.2,2-2.5,3.9-3.8,5.9c-0.9,1.4-1.8,2.8-2.9,4.4c1.2,0.1,1.9-0.5,2.6-0.8
		c7.5-3.5,15.1-6.8,23.3-8.7c1-0.2,2-0.5,3.1-0.7c4.7-0.9,9-0.1,12.9,2.6c1,0.7,2.2,1.4,3.1,2.2c3.8,3.3,8.5,4.4,13.4,4.9
		c7,0.8,13.9-0.3,20.6-2.1c8.5-2.3,16.6-5.6,16.6-5.6s9.3-4,14.7-5c1-0.2,1.8-0.2,2.4-0.2C587.1,167.2,590.7,169.1,589.5,171z"/>
	<path d="M579.3,159.5C579.3,159.5,579.3,159.5,579.3,159.5c-1.4-0.7-0.7-2.7,0.9-2.4c4.1,0.7,8.3,0,11.3-3.9
		c0.6-0.7,1.7-0.8,2.4-0.2l2.7,2.3c0.5,0.5,0.7,1.2,0.3,1.8C595.4,159.6,590.7,164.8,579.3,159.5z M667.8,172
		c-0.9,0.9-3.2,2.3-7,3.9c0,0-2.5,1.2-3.8,1.6c-6,2-12,3.9-18,5.7c-2.5,0.7-4.9,1.4-7.4,2.1c-7,1.9-14,3.4-21.2,4.4
		c-0.9,0.1-1.8,0.2-2.7,0.3c-5.8,0.8-13.1-2.5-13.1-2.5c-3.3-1.4-6.5-4-9.1-7.5c-1.8-2.5-3.5-5.1-4.5-8c-0.9-2.5,0.1-4,2.8-4.5
		c1.5-0.3,3.1-0.2,4.7,0c1.6,0.3,2.6,1.2,3.2,2.6c1,2.2,2.1,4.3,3.5,6.3c2.1,3.2,5,5.6,8.7,7.1c0.9,0.4,2,0.5,3,0.4
		c5.9-1,11.8-2.4,17.7-3.9c1.4-0.4,4.3-1.1,4.3-1.2c5.7-1.5,11.3-3.2,16.9-5.1c4-1.3,8-2.7,8.2-2.8c2.3-0.9,9.6-3.3,12-3.3
		c0,0,0,0,0,0c0.4,0,0.9,0,1.3,0.2c0.6,0.2,1.1,0.5,1.4,1c0.1,0.2,0.1,0.3,0.2,0.5c0,0,0,0,0,0C668.9,170.2,668.8,170.9,667.8,172z"
		/>
	<path d="M764.9,172.5c-1.4,2.6-8.2,5.8-8.2,5.8c-8.4,4-17.1,7.4-26,10.1c-11.3,3.3-22.3,2.3-32.9-2.9c-1.8-0.9-3.6-1.6-5.4-2.4
		c-1.5-0.7-2.7-0.4-4.1,0.4c-5.5,3.4-11.2,6.7-16.8,10c-3.3,1.9-6.6,3.7-10.2,4.9c-1.5,0.5-3,0.9-4.6,0.9c-2.3,0-3.4-1-3.5-3.1
		c-0.2-2.4,0.6-4.5,1.5-6.7c3.7-8.4,7.5-16.8,12.4-24.6c9.7-15.6,20.1-30.7,31.8-45.1c1.5-1.9,3.2-3.7,5.1-5.2
		c1-0.8,2.1-1.5,3.4-1.9c3.3-1,5.6,0.3,5.9,3.5c0.1,1.2,0.1,2.5-0.2,3.7c-1.8,8.5-5.4,16.2-10.6,23.3c-5,6.8-10.9,12.7-17.2,18.5
		c-5.1,4.6-10.2,9.1-15.8,13.2c-2.2,1.6-3.8,3.5-5,5.9c-1.3,2.7-2.7,5.3-4.3,8.5c8-3.5,15-7.5,22-11.6c0.9-0.5,1.4-1.1,1.6-2.3
		c0.2-1.7,1-3.3,1.7-4.9c0.9-2.2,2.5-2.6,4.5-1.2c0.3,0.2,0.5,0.4,0.8,0.6c1.8,1.2,2.4,1.2,4.2,0c8-5.1,16-10.2,24-15.3
		c1-0.6,2-1.3,3.1-1.8c2.1-0.8,3.5,0,3.3,2.2c-0.2,2.9-1.3,5.4-3.6,7.4c-1.6,1.4-3.4,2.5-5.3,3.6c-4.8,2.6-9.3,5.7-14,8.6
		c-0.4,0.2-0.8,0.4-0.9,1c3.7,1.8,7.6,2.9,11.7,3.6c7.8,1.3,15.4,0.6,22.8-2.2c6.8-2.6,13.6-5.1,20.1-8.3c0,0,4.8-2.8,8.9-3.3
		C768.7,165.1,766.1,170.2,764.9,172.5z M679.3,157c6.3-5.1,12.2-10.6,17.4-16.6c3.1-3.6,5.8-7.4,8.3-11.3c1.1-1.8,2-3.6,1.5-5.9
		c-1.4,0.5-2.4,1.4-3.4,2.2c-2,1.7-3.7,3.7-5.3,5.8c-3.2,4.3-6.5,8.6-9.6,12.9C684.9,148.2,681.9,152.5,679.3,157z"/>
	<path d="M776.4,146.5c0.4,2.1,0.1,4.1-0.4,6.1c-2.6,9.8-5.2,19.6-8,29.3c-5.6,19.1-12.1,37.8-20.3,56c-5.9,13-13.1,25.2-21.9,36.5
		c-3.9,5-8.1,9.6-13.4,13.4c-3.9,2.8-8.1,4.8-12.8,5.8c-4.5,1-8.8,0.6-13.1-0.8c-8.4-2.7-15.8-7.2-22.7-12.4
		c-8.4-6.4-15.1-14-19.3-23.5c-3.4-7.5-4.3-15.3-2.9-23.4c0.5-2.7,1.7-5.1,3.6-7.3c0.4-0.4,0.8-0.9,1.3-1.2c0.7-0.5,1.4-1.1,2.4-0.6
		c0.9,0.4,1.1,1.2,1.1,2.1c0,0.9,0,1.8-0.1,2.7c-2,13.4,2.3,24.9,11.6,35c7.6,8.3,17.3,14.2,27.8,18.8c7,3,13.9,2.5,20.6-0.9
		c4-2,7.4-4.7,10.3-7.9c5.2-5.9,9.6-12.3,13.1-19.2c10.7-20.9,18.8-42.7,25.5-64.9c3.1-10.5,5.9-21.1,8.7-31.6
		c0.2-0.9,0.4-1.9,0.6-3c-1-0.2-1.6,0.3-2.2,0.5c-4,1.7-7.7,0.8-10.9-1.7c-2.1-1.6-2.4-3.7-1.2-6c0.8-1.5,1.8-3,3.2-4.2
		c1.3-1.1,2.4-1.1,3.7,0.1c0.8,0.7,1.3,1.5,2.1,2.2c1.7,1.7,3.3,1.9,5.4,0.7c0.8-0.4,1.6-1,2.3-1.6c0.8-0.5,1.5-1.1,2.5-1.3
		C774.6,143.7,775.9,144.4,776.4,146.5z M781.4,134.4c-1.5,2.4-6.2,7.6-17.6,2.3c0,0,0,0,0,0c-1.4-0.7-0.7-2.7,0.9-2.4
		c4.1,0.7,8.3,0,11.3-3.9c0.6-0.7,1.7-0.8,2.4-0.2l2.7,2.3C781.7,133.1,781.8,133.8,781.4,134.4z"/>
</g>
</svg>
